<?xml version="1.0" standalone="no"?>
<!DOCTYPE svg PUBLIC "-//W3C//DTD SVG 1.1//EN" "http://www.w3.org/Graphics/SVG/1.1/DTD/svg11.dtd" >
<!--
2013-9-30: Created.
-->
<svg>
<metadata>
Created by iconfont
</metadata>
<defs>

<font id="iconfont" horiz-adv-x="1024" >
  <font-face
    font-family="iconfont"
    font-weight="500"
    font-stretch="normal"
    units-per-em="1024"
    ascent="896"
    descent="-128"
  />
    <missing-glyph />
    
    <glyph glyph-name="weixin" unicode="&#58935;" d="M1010.8 268c0 141.2-141.3 256.2-299.9 256.2-168 0-300.3-115.1-300.3-256.2 0-141.4 132.3-256.2 300.3-256.2 35.2 0 70.7 8.9 106 17.7l96.8-53-26.6 88.2c70.9 53.2 123.7 123.7 123.7 203.3zM618 307.2c-22.1 0-40 17.9-40 40s17.9 40 40 40 40-17.9 40-40c0-22-17.9-40-40-40z m194.3 0.3c-22.1 0-40 17.9-40 40s17.9 40 40 40 40-17.9 40-40-17.9-40-40-40zM366.3 789.1c-194.1 0-353.1-132.3-353.1-300.3 0-97 52.9-176.6 141.3-238.4l-35.3-106.2 123.4 61.9c44.2-8.7 79.6-17.7 123.7-17.7 11.1 0 22.1 0.5 33 1.4-6.9 23.6-10.9 48.3-10.9 74 0 154.3 132.5 279.5 300.2 279.5 11.5 0 22.8-0.8 34-2.1C692 683.4 539.9 789.1 366.3 789.1zM247.7 546.8c-26.5 0-48 21.5-48 48s21.5 48 48 48 48-21.5 48-48-21.5-48-48-48z m246.6 0c-26.5 0-48 21.5-48 48s21.5 48 48 48 48-21.5 48-48-21.5-48-48-48z"  horiz-adv-x="1024" />

    
    <glyph glyph-name="zhifubao" unicode="&#59018;" d="M902.095 243.129l-250.96 84.392s19.287 28.87 39.874 85.472c20.59 56.606 23.539 87.689 23.539 87.689l-162.454 1.339v55.487l196.739 1.387v39.227H552.055v89.29h-96.358v-89.294H272.133v-39.227l183.564 1.304v-59.513h-147.24v-31.079h303.064s-3.337-25.223-14.955-56.606c-11.615-31.38-23.58-58.862-23.58-58.862s-142.3 49.804-217.285 49.804c-74.985 0-166.182-30.123-175.024-117.55-8.8-87.383 42.481-134.716 114.728-152.139 72.256-17.513 138.962 0.173 197.04 28.607 58.087 28.391 115.081 92.933 115.081 92.933l292.486-142.041c-11.932-69.3-72.067-119.914-142.387-119.844H266.37c-79.714-0.078-144.392 64.483-144.466 144.194V629.626c-0.074 79.72 64.493 144.399 144.205 144.47h491.519c79.714 0.073 144.396-64.49 144.466-144.203v-386.764z m-365.76 48.895s-91.302-115.262-198.879-115.262c-107.623 0-130.218 54.767-130.218 94.155 0 39.34 22.373 82.144 113.943 88.333 91.519 6.18 215.2-67.226 215.2-67.226h-0.047z"  horiz-adv-x="1024" />

    
    <glyph glyph-name="yunshupeisong" unicode="&#58912;" d="M780.190135 560.179558 611.66593 560.179558l0 62.753229c0 29.514197-14.223956 52.292993-40.964994 52.292993L112.452141 675.225781c-26.736944 0-48.489364-24.01188-48.489364-53.525054L63.962777 224.708064c0-29.510104 15.392572-51.500954 42.130539-51.500954l115.860774 0c0 0 14.32424-104.588033 115.859751-104.588033 109.123326 0 126.392642 98.373495 126.392642 104.588033l105.328907 0c0.864694 0-0.858554-0.051165 0 0l0 0 63.196321 0c0 0 10.532891-0.010233 10.532891 0 6.954389-69.25634 55.202253-105.062847 126.392642-104.588033 126.21868 0.840134 115.859751 115.045199 115.859751 115.045199l42.131563 0c27.353998 0 31.598672 5.859451 31.598672 31.376615l0 167.341263L780.190135 560.179558zM337.813842 99.995691c-40.177048 0.37146-84.261079 36.132942-84.261079 83.668585 0 50.356898 37.193087 90.766236 84.261079 94.129844 50.325176 3.594875 95.26776-42.433438 95.26776-92.790336C430.714695 122.320139 380.405893 99.52497 337.813842 99.995691zM580.068282 204.582701 464.206484 204.582701c-14.541181 60.242036-61.632709 104.588033-126.392642 104.588033-64.765049 0-101.316523-44.344974-115.859751-104.588033L95.561449 204.582701 95.561449 643.851213l484.506832 0L580.068282 204.582701zM769.658268 99.995691c-50.456159 0-94.15952 34.652218-94.15952 85.009116 0 50.356898 45.86663 92.184539 83.626629 92.790336 66.523089 1.067308 94.794993-43.772946 94.794993-94.129844C853.919347 133.307378 820.11238 99.995691 769.658268 99.995691L769.658268 99.995691zM885.518019 215.04089c-1.693572 44.270273-46.402843 96.207156-126.392642 94.129844-66.443271-1.725294-115.860774-52.752458-115.860774-104.588033l-31.598672 0c0.316202 2.465145 0 18.352997 0 20.916379L611.66593 528.803967l157.991314 0 157.991314-156.880003 0-156.88205L885.518019 215.041914z"  horiz-adv-x="1024" />

    
    <glyph glyph-name="youhui" unicode="&#58954;" d="M207.91 100.298c25.103-1.767 45.748-7.147 61.894-16.146 12.53 19.762 26.911 49.32 43.057 88.805 1.766 7.147 6.265 13.455 13.455 18.837 3.574 0 5.382 0.883 5.382 2.692-5.382 5.382-25.145 10.763-59.204 16.145-16.145-50.247-37.674-86.996-64.584-110.333zM716.521 229.469l-51.13-26.91c39.44-34.101 70.85-71.733 94.187-113.026l56.513 37.677c-19.763 19.719-52.939 53.82-99.57 102.259zM711.14 269.836c17.912-17.956 29.602-31.41 34.983-40.367l43.057 34.984c-41.29 34.058-73.583 60.969-96.877 80.731 3.572-1.808 10.764-2.691 21.527-2.691 10.766-1.808 18.838-2.689 24.219-2.689-3.614 12.528-4.497 39.439-2.69 80.731v67.276c-1.807 30.485 0 52.896 5.383 67.277-14.382-3.616-42.174-4.5-83.423-2.691H536.22v37.675h164.155c35.866 0 68.16-1.808 96.879-5.383v56.513c-30.527-5.383-63.702-8.074-99.569-8.074H536.22c0 19.721 3.574 35.867 10.765 48.44 3.573 1.766 5.383 3.574 5.383 5.382-1.81 1.766-8.999 3.574-21.529 5.383-12.573 0-28.719 0.882-48.44 2.69 3.575-16.146 4.458-36.792 2.692-61.895H331.699c-46.673 0-78.966 2.691-96.878 8.074v-53.822c8.957 1.766 42.132 2.691 99.57 2.691h150.7v-37.675H363.992c-41.292 0-65.511 0.883-72.659 2.691v-5.382c3.574-21.529 5.382-41.292 5.382-59.203v-75.35c-1.808-25.145-3.616-44.866-5.382-59.205v-16.145h24.22c14.338 1.765 32.293 3.573 53.821 5.381H485.09v-40.366a4191.158 4191.158 0 0 0-150.7-2.691c-46.674 0-81.658 1.767-104.952 5.383 8.956-21.528 15.222-42.173 18.838-61.895 8.956 5.383 145.317 12.53 409.042 21.528a537.041 537.041 0 0 1 53.822 2.694zM485.09 385.55H347.846v43.058H485.09v-43.058z m0 80.733H347.846v45.748H485.09v-45.748z m51.13 45.748h148.01v-45.748H536.22v45.748z m0-83.423h148.01v-43.058H536.22v43.058z m0-83.423h142.627l-32.293-21.528 29.602-16.146H536.22v37.674zM627.716 186.412c1.767-50.248-23.336-71.733-75.349-64.586h-80.733c-37.676-1.766-53.821 7.189-48.439 26.911V181.03c0 17.912 4.457 30.484 13.455 37.675l2.691 2.691c-12.572 3.573-36.792 6.264-72.659 8.072v-16.147c0-8.997 0.883-18.835 2.691-29.602v-51.129c-7.19-43.059 28.677-62.777 107.643-59.203h86.114c41.249 0 69.043 5.382 83.423 16.145 16.147 8.999 30.485 30.528 43.057 64.588-23.336 0-43.98 10.763-61.894 32.292zM520.074 154.12l56.512 18.837c-8.999 21.529-20.645 45.748-34.983 72.658L485.09 232.16c17.912-30.528 29.601-56.513 34.984-78.04zM512 895.994C229.234 895.994 0.006 666.766 0.006 384c0-282.767 229.228-511.994 511.994-511.994 282.767 0 511.994 229.228 511.994 511.994S794.767 895.994 512 895.994z m315.817-827.811c-41.039-41.039-88.811-73.251-141.987-95.743-55.02-23.273-113.506-35.073-173.83-35.073-60.324 0-118.809 11.8-173.83 35.072-53.177 22.492-100.948 54.704-141.987 95.743-41.04 41.039-73.252 88.811-95.744 141.987C77.167 265.191 65.367 323.676 65.367 384c0 60.324 11.8 118.809 35.072 173.83 22.492 53.177 54.705 100.948 95.744 141.987 41.039 41.04 88.811 73.252 141.987 95.744C393.191 818.833 451.676 830.633 512 830.633c60.324 0 118.81-11.8 173.83-35.072 53.177-22.492 100.948-54.705 141.987-95.744s73.251-88.811 95.743-141.987c23.272-55.021 35.072-113.506 35.072-173.83 0-60.324-11.8-118.809-35.072-173.83-22.492-53.177-54.704-100.948-95.743-141.987z"  horiz-adv-x="1024" />

    
    <glyph glyph-name="zhifu" unicode="&#58917;" d="M878 39.3H146.5c-41.4 0-75 33.6-75 75V654.2c0 41.4 33.6 75 75 75H878c41.4 0 75-33.6 75-75v-539.9c0-41.4-33.6-75-75-75zM146.5 679.2c-13.8 0-25-11.2-25-25v-539.9c0-13.8 11.2-25 25-25H878c13.8 0 25 11.2 25 25V654.2c0 13.8-11.2 25-25 25H146.5zM471 270.6c-12.8 0-25.1 5.3-33.9 14.6l-82.5 87.3c-9.5 10-9.1 25.9 1 35.3 10 9.5 25.9 9 35.3-1l80.1-84.7 162.8 168.1c9.6 9.9 25.4 10.2 35.4 0.6 9.9-9.6 10.2-25.4 0.6-35.4l-165-170.2c-8.7-9.2-21-14.5-33.8-14.6 0.1 0 0 0 0 0z"  horiz-adv-x="1024" />

    
    <glyph glyph-name="youhui-" unicode="&#58887;" d="M845.9 455.6l-0.2 335c0 29.2-15.7 49.1-44.9 49.1H464.7c-22.6 0-41.1-6.5-61.7-27.9-6.2-6.4-373.6-393.6-373.6-393.6-37.8-37.7-37.8-98.9 0-136.6l254.2-273.2c18.9-18.9 43.6-28.3 68.3-28.3s49.5 9.4 68.3 28.3c0 0 391.4 388.8 402 399.2 15.2 14.7 23.7 21.2 23.7 48z m-48.2-4.9c-1.5-1.6-3.9-3.9-6-5.9l-2.9-2.8c-10.7-10.4-386.3-383.6-402.4-399.6-9.2-9.2-21.4-14.2-34.4-14.2s-25.2 5.1-34.4 14.2L63.4 315.5c-9.2 9.2-14.2 21.4-14.2 34.3 0 13 5.1 25.2 14.3 34.4 39.6 39.7 367.9 387.7 374.2 394.3 12.1 12.6 18.2 13.2 27.2 13.2h332.9v-1.1l0.2-335c-0.1-2.3-0.2-3.9-0.3-4.9zM1010.7 557.6l-86.5 182.2c-6.6 11.4-21.3 15.4-32.8 8.8-11.5-6.6-15.4-21.3-8.8-32.8l86.5-182.2c7.5-13 6.9-15 2.3-31l-1.1-3.8c-4-14.5-92.9-450.5-97.4-468.6-10.3-38.7-50.2-61.7-89-51.4l-241.8 64.5c-12.8 3.4-25.9-4.2-29.4-17-3.4-12.8 4.2-26 17-29.4l241.7-64.5c10.4-2.8 20.8-4.1 31.2-4.1 53.3 0 102.2 35.7 116.7 89.9 31.3 126.2 94 456.2 97.2 467.6l1 3.6c5.7 19.3 10.9 37.6-6.8 68.2zM614.1 704.2c-40 0-72.5-32.4-72.5-72.4s32.5-72.4 72.5-72.4 72.5 32.4 72.5 72.4-32.5 72.4-72.5 72.4z m0-96.9c-13.5 0-24.5 11-24.5 24.4 0 13.5 11 24.4 24.5 24.4s24.5-11 24.5-24.4c0-13.5-11-24.4-24.5-24.4z"  horiz-adv-x="1024" />

    
    <glyph glyph-name="yuhangyuan" unicode="&#59328;" d="M848 432v-64a334.88 334.88 0 0 1-98.4 237.6C537.44 817.76 176 665.28 176 368c0 72.16-3.84 121.28 25.28 192A336 336 0 0 0 848 432zM848 368v-80a224 224 0 0 0-224-224H400a224 224 0 0 0-224 224c0 84-4.8 135.2 25.28 208A336 336 0 0 0 848 368zM784 462.56v-204.8a96 96 0 0 0-64-90.72 597.28 597.28 0 0 0-415.04 0 96 96 0 0 0-64 90.72v204.8a96 96 0 0 0 64 90.4c25.44 9.28 98.56 32 119.2 32L464 544h96c45.12 45.12 40 41.44 41.6 41.44a640 640 0 0 0 119.04-32A96 96 0 0 0 784 462.56zM714.24 555.2L469.76 131.84c-12.16 0-23.84 1.76-35.2 3.2L683.2 565.76c10.24-3.2 20.8-6.72 31.04-10.56zM624 581.28l-251.2-435.2a682.88 682.88 0 0 0-68.8 20.96c-3.36 1.28-19.36-28.64 215.04 376.96H560l41.44 41.44c1.6 0 21.6-3.84 22.56-4.16zM848 272c-1.6 0 0-9.76 0 176a48 48 0 0 0 48-48v-80a48 48 0 0 0-48-48zM176 272c1.6 0 0-9.76 0 176a48 48 0 0 1-48-48v-80a48 48 0 0 1 48-48zM768 112v-48a64 64 0 0 0-64-64H320a64 64 0 0 0-64 64v48h5.6A223.04 223.04 0 0 1 400 64h224a223.04 223.04 0 0 1 138.4 48zM880 384V720a16 16 0 0 0 32 0v-336a16 16 0 0 0-32 0zM299.04 152A112.96 112.96 0 0 0 224 257.76v204.8a112 112 0 0 0 73.92 105.44 649.6 649.6 0 0 0 121.92 33.28c10.88 1.76 12.48-2.88 50.72-41.28h82.88c40.16 40.16 40.32 42.88 50.72 41.28a649.6 649.6 0 0 0 121.92-33.28A112 112 0 0 0 800 462.56V400a16 16 0 0 0-32 0v62.56a80 80 0 0 1-52.8 75.36 640 640 0 0 1-108.32 30.4l-35.52-35.68c-6.56-6.4-4.8-4.64-107.36-4.64-8.8 0-8.8 2.24-46.88 40.32a640 640 0 0 1-108.32-30.4 80 80 0 0 1-52.8-75.36v-204.8a80 80 0 0 1 53.92-75.68 586.88 586.88 0 0 1 404.16 0A80 80 0 0 1 768 257.76V336a16 16 0 0 0 32 0v-78.24a112.96 112.96 0 0 0-75.04-105.76 618.56 618.56 0 0 0-425.92 0zM624 48H400a240 240 0 0 0-240 240c0 150.72-8.16 206.4 35.52 298.24a16 16 0 0 0 28.8-13.76c-42.24-88.96-32-147.84-32-284.48A208 208 0 0 1 400 80h224a208 208 0 0 1 208 208c0 148.64 16 260-93.76 370.24A320 320 0 0 1 256 624a16 16 0 0 0-25.6 19.2 352 352 0 0 0 530.72 37.76C880 561.6 864 438.4 864 288a240 240 0 0 0-240-240zM832 272V448c0 33.44 80 12.96 80-48v-80c0-61.44-80-81.28-80-48z m32 155.68v-135.36A32 32 0 0 1 880 320c0 80 5.12 96-16 107.68zM112 320v80c0 61.44 80 81.28 80 48v-176c0-33.44-80-12.96-80 48z m48 107.68C138.88 416 144 400 144 320a32 32 0 0 1 16-27.68zM704-16H384a16 16 0 0 0 0 32h320a48 48 0 0 1 48 48v21.12C678.56 38.4 640.8 48 400 48a236.96 236.96 0 0 0-128 37.12V64a48 48 0 0 1 48-48 16 16 0 0 0 16-16c0-36.48-96-10.4-96 64v48c0 16 22.24 19.84 32 12.64A205.28 205.28 0 0 1 400 80h224a205.28 205.28 0 0 1 128 44.64c9.44 7.36 32 4.16 32-12.64v-48a80 80 0 0 0-80-80z"  horiz-adv-x="1024" />

    
    <glyph glyph-name="hangxing" unicode="&#59330;" d="M848 584c0-165.92-216.48-232-308.32-92.32A168 168 0 1 0 848 584zM800 632a168.16 168.16 0 0 0-260.32-140.32 168 168 0 0 0 232.64 232.64A167.68 167.68 0 0 0 800 632zM768 384a256 256 0 1 0-256 256 256 256 0 0 0 256-256zM720 464c0-235.84-293.28-345.12-448-169.44a256 256 0 0 0 432 258.88A251.36 251.36 0 0 0 720 464zM766.08 400c-104 0-181.12-12.8-256 51.84C446.56 505.92 384 496 290.24 496a16 16 0 0 0 0 32c99.04 0 167.84 10.24 240-51.84C596.32 419.52 663.36 432 766.08 432a16 16 0 0 0 0-32zM466.72 240h-176a16 16 0 0 0 0 32h176c68.64 0 71.04 64 154.56 64h138.72a16 16 0 0 0 0-32h-138.72c-68.64 0-71.04-64-154.56-64zM432 400H258.08a16 16 0 0 0 0 32H432a16 16 0 0 0 0-32zM711.84 528H576a16 16 0 0 0 0 32h135.84a16 16 0 0 0 0-32zM480 304a48 48 0 1 0 48 48 48 48 0 0 0-48-48z m0 64a16 16 0 0 1 0-32 16 16 0 0 1 0 32zM830.24 131.2a16 16 0 0 0 0 32c22.4 0 37.28 4.48 41.92 12.8 11.2 19.36-20.64 76.96-117.12 157.44a16 16 0 0 0 20.48 24.64c60.16-50.24 156.32-142.72 124.48-198.08-11.04-19.04-34.4-28.8-69.76-28.8zM832 160a48 48 0 1 0-48 48 48 48 0 0 0 48-48zM740.32 140.32a48 48 0 0 0 64 64 48 48 0 0 0-64-64zM496 80a112 112 0 1 0-112 112 112 112 0 0 0 112-112zM288 23.36c-58.72 99.2 55.2 211.36 153.28 153.28 57.6-98.24-54.88-212-153.28-153.28zM208 336a64 64 0 1 0-64 64 64 64 0 0 0 64-64zM85.76 309.76a64 64 0 0 0 84.48 84.48 64 64 0 0 0-84.48-84.48zM528 112a16 16 0 0 0-0.96 32 240 240 0 1 1-75.84 471.68 16 16 0 0 0-8 31.04A272 272 0 0 0 784 384c0-157.12-133.76-272-256-272zM361.44 570.88a240 240 0 0 1-30.24-344.64 16 16 0 0 0-24-21.12 272 272 0 0 0 14.24 372.96c24.32-8.16 30.56-13.6 40-7.2zM395.84 594.08a240 240 0 0 1-34.4-23.2 16 16 0 0 1-3.52 28.32l-8.16 3.04a265.28 265.28 0 0 0 30.72 19.84 16 16 0 0 0 15.36-28zM470.08 122.4a96 96 0 0 1-115.84 48.8 16 16 0 0 0-10.24 30.4 128 128 0 0 0 154.88-65.12 16 16 0 0 0-28.8-14.08zM256 80c0 134.88 183.04 178.08 242.88 56.48C510.4 113.12 523.04 64 496 64a16 16 0 0 0-16 16 96 96 0 0 1-125.76 91.2C250.88 137.6 275.2-16 384-16a96 96 0 0 1 81.44 45.28 16 16 0 0 0 27.2-16.96C425.12-96 256-48 256 80zM73.92 297.44a16 16 0 0 0 28.16 16 48 48 0 1 1 0 46.4 16 16 0 0 0-28.16 16 80 80 0 1 0 0-77.12zM672 688a16 16 0 0 0-11.36 27.36l40 40a16 16 0 0 0 22.72-22.72C680.16 689.44 680.8 688 672 688zM672 576a16 16 0 0 0-11.36 27.36l40 40a16 16 0 0 0 22.72-22.72C680.16 577.44 680.8 576 672 576zM768 544a16 16 0 0 0-11.36 27.36l72 72a16 16 0 0 0 22.72-22.72C777.44 546.88 777.44 544 768 544zM272 704a16 16 0 0 0-32 0 16 16 0 0 0 32 0zM904.96 481.6a16 16 0 0 0 14.08 28.8 16 16 0 0 0-14.08-28.8zM840.96 337.6a16 16 0 0 0 14.08 28.8 16 16 0 0 0-14.08-28.8zM576-32a16 16 0 0 0-32 0 16 16 0 0 0 32 0zM640 80a16 16 0 0 0-32 0 16 16 0 0 0 32 0zM208 176a16 16 0 0 0-32 0 16 16 0 0 0 32 0zM576 800a16 16 0 0 0-32 0 16 16 0 0 0 32 0zM448 688a16 16 0 0 0-32 0 16 16 0 0 0 32 0zM784 96a64 64 0 1 0 64 64 64 64 0 0 0-64-64z m0 96a32 32 0 1 1 32-32 32 32 0 0 1-32 32zM346.72 569.12a820.8 820.8 0 0 1-25.28 8.96 256 256 0 0 0 28.32 24.16l8.16-3.04a16 16 0 0 0-11.2-30.08zM695.84 158.4C459.68 237.12 61.28 498.88 124 608c31.04 53.6 151.2 20.8 225.76-5.76a256 256 0 0 1-28.32-24.16c-416 139.68 7.84-265.92 384-389.28a16 16 0 0 0-9.6-30.4zM788.32 477.44c112 112-4.96 301.28-155.52 251.04-74.4-24.32-73.76-78.24-99.04-60.32a16 16 0 0 0-3.84 22.4A184 184 0 1 0 811.2 455.04a16 16 0 0 0-22.88 22.4zM746.72 434.4A240 240 0 0 1 520.96 624a16 16 0 0 0 0 32 272 272 0 0 0 256-214.72 16 16 0 0 0-30.24-6.88z"  horiz-adv-x="1024" />

    
    <glyph glyph-name="yonghu1" unicode="&#58895;" d="M525.5 299.8c-156.1 0-282.6-127.7-282.6-285.2h565.2c0 157.5-126.5 285.2-282.6 285.2zM491.2 3.2H187.3c-6.3 0-11.4 5.1-11.4 11.4 0 142.9 91.5 267.7 227.8 310.5 6 1.9 12.4-1.4 14.3-7.4 1.9-6-1.5-12.4-7.4-14.3C287.4 264.8 203.5 154.1 198.8 26h292.3c6.3 0 11.4-5.1 11.4-11.4s-5.1-11.4-11.3-11.4zM561.7 623.2c36.5-30.5 59.7-76.4 59.7-127.7 0-92-74.5-166.5-166.5-166.5-19.6 0-38.5 3.4-55.9 9.7 28.9-24.2 66.1-38.8 106.8-38.8 92 0 166.5 74.5 166.5 166.5-0.1 72.3-46.2 133.8-110.6 156.8zM621.4 495.4c0 51.3-23.2 97.2-59.7 127.7-17.5 6.2-36.3 9.7-55.9 9.7-92 0-166.5-74.5-166.5-166.5 0-51.3 23.2-97.2 59.7-127.7 17.5-6.2 36.3-9.7 55.9-9.7 91.9 0 166.5 74.6 166.5 166.5zM491.2 288.5c-106.1 0-192.4 86.3-192.4 192.4 0 25.4 4.9 50.1 14.5 73.4 2.4 5.8 9.1 8.6 14.9 6.2 5.8-2.4 8.6-9.1 6.2-14.9-8.5-20.5-12.8-42.3-12.8-64.7 0-93.6 76.1-169.7 169.7-169.7S661 387.3 661 480.9s-76.1 169.7-169.7 169.7c-37 0-72.1-11.7-101.6-33.8-5-3.8-12.2-2.7-15.9 2.3-3.8 5-2.7 12.2 2.3 15.9 33.5 25.1 73.3 38.3 115.2 38.3 106.1 0 192.4-86.3 192.4-192.4-0.1-106.1-86.4-192.4-192.5-192.4zM340.1 576c-1.9 0-3.7 0.5-5.5 1.4-5.5 3-7.5 9.9-4.5 15.4 3.2 5.8 7.7 11 13 15 5 3.8 12.2 2.7 15.9-2.3 3.8-5 2.7-12.2-2.3-15.9-2.8-2.1-5.1-4.8-6.7-7.8-2-3.7-5.9-5.8-9.9-5.8zM198.5 386.9c-17 0-30.8 13.8-30.8 30.8s13.8 30.8 30.8 30.8 30.8-13.8 30.8-30.8c0-16.9-13.8-30.8-30.8-30.8z m0 46.5c-8.6 0-15.7-7-15.7-15.7 0-8.6 7-15.7 15.7-15.7 8.6 0 15.7 7 15.7 15.7-0.1 8.7-7.1 15.7-15.7 15.7zM174.3 569.2h-13.5v13.5c0 3.6-2.9 6.5-6.5 6.5s-6.5-2.9-6.5-6.5v-13.5h-13.5c-3.6 0-6.5-2.9-6.5-6.5s2.9-6.5 6.5-6.5h13.5v-13.5c0-3.6 2.9-6.5 6.5-6.5s6.5 2.9 6.5 6.5v13.5h13.5c3.6 0 6.5 2.9 6.5 6.5s-2.9 6.5-6.5 6.5zM915.5 568.1H902v13.5c0 3.6-2.9 6.5-6.5 6.5s-6.5-2.9-6.5-6.5v-13.5h-13.5c-3.6 0-6.5-2.9-6.5-6.5s2.9-6.5 6.5-6.5H889v-13.5c0-3.6 2.9-6.5 6.5-6.5s6.5 2.9 6.5 6.5v13.5h13.5c3.6 0 6.5 2.9 6.5 6.5s-2.9 6.5-6.5 6.5zM874.7 432.6H859v15.7c0 4.2-3.4 7.6-7.6 7.6s-7.6-3.4-7.6-7.6v-15.7h-15.7c-4.2 0-7.6-3.4-7.6-7.6s3.4-7.6 7.6-7.6h15.7v-15.7c0-4.2 3.4-7.6 7.6-7.6s7.6 3.4 7.6 7.6v15.7h15.7c4.2 0 7.6 3.4 7.6 7.6s-3.4 7.6-7.6 7.6zM277 637.8m-11.4 0a11.4 11.4 0 1 1 22.8 0 11.4 11.4 0 1 1-22.8 0ZM785.3 577.8m-15.2 0a15.2 15.2 0 1 1 30.4 0 15.2 15.2 0 1 1-30.4 0ZM689.2 727.6m-15.2 0a15.2 15.2 0 1 1 30.4 0 15.2 15.2 0 1 1-30.4 0ZM503.9 720.7c-17 0-30.8 13.8-30.8 30.8s13.8 30.8 30.8 30.8 30.8-13.8 30.8-30.8c0.1-17-13.8-30.8-30.8-30.8z m0 46.5c-8.6 0-15.7-7-15.7-15.7 0-8.6 7-15.7 15.7-15.7s15.7 7 15.7 15.7-7 15.7-15.7 15.7zM322.3 793.7c-1.6 1.6-4.3 1.6-5.9 0-0.8-0.8-1.2-1.9-1.2-3s0.4-2.2 1.2-3l13.5-13.5c0.8-0.8 1.8-1.2 3-1.2 1.1 0 2.2 0.4 3 1.2 1.6 1.6 1.6 4.3 0 5.9l-13.6 13.6zM357.9 758.1c-0.8 0.8-1.8 1.2-3 1.2-1.1 0-2.2-0.4-3-1.2-1.6-1.6-1.6-4.3 0-5.9l13.5-13.5c0.8-0.8 1.8-1.2 3-1.2 1.1 0 2.2 0.4 3 1.2 0.8 0.8 1.2 1.8 1.2 3 0 1.1-0.4 2.2-1.2 3l-13.5 13.4zM354.9 773c1.1 0 2.2 0.4 3 1.2l13.5 13.5c0.8 0.8 1.2 1.8 1.2 3 0 1.1-0.4 2.2-1.2 3-1.6 1.6-4.3 1.6-5.9 0L352 780.2c-1.6-1.6-1.6-4.3 0-5.9 0.7-0.8 1.8-1.3 2.9-1.3zM329.8 758.1l-13.5-13.5c-0.8-0.8-1.2-1.9-1.2-3s0.4-2.2 1.2-3c0.8-0.8 1.8-1.2 3-1.2 1.1 0 2.2 0.4 3 1.2l13.5 13.5c1.6 1.6 1.6 4.3 0 5.9-1.6 1.7-4.4 1.7-6 0.1zM332.4 766.2c0 2.3-1.9 4.2-4.2 4.2h-19.1c-2.3 0-4.2-1.9-4.2-4.2 0-2.3 1.9-4.2 4.2-4.2h19.1c2.4 0 4.2 1.9 4.2 4.2zM378.5 770.4h-19.1c-2.3 0-4.2-1.9-4.2-4.2 0-2.3 1.9-4.2 4.2-4.2h19.1c2.3 0 4.2 1.9 4.2 4.2 0 2.3-1.9 4.2-4.2 4.2zM343.9 805.1c-2.3 0-4.2-1.9-4.2-4.2v-19.1c0-2.3 1.9-4.2 4.2-4.2s4.2 1.9 4.2 4.2V800.9c0 2.3-1.9 4.2-4.2 4.2zM343.9 754.8c-2.3 0-4.2-1.9-4.2-4.2v-19c0-2.3 1.9-4.2 4.2-4.2s4.2 1.9 4.2 4.2v19c0 2.3-1.9 4.2-4.2 4.2zM948.1 3.2H921c-6.3 0-11.4 5.1-11.4 11.4S914.8 26 921 26h27.1c6.3 0 11.4-5.1 11.4-11.4s-5.1-11.4-11.4-11.4zM110.5 3.2H75.9c-6.3 0-11.4 5.1-11.4 11.4S69.6 26 75.9 26h34.7c6.3 0 11.4-5.1 11.4-11.4s-5.2-11.4-11.5-11.4zM877.6 3.2H146.4c-6.3 0-11.4 5.1-11.4 11.4s5.1 11.4 11.4 11.4h731.2c6.3 0 11.4-5.1 11.4-11.4s-5.1-11.4-11.4-11.4zM716.3 117.6m-143.3 0a143.3 143.3 0 1 1 286.6 0 143.3 143.3 0 1 1-286.6 0ZM709.6-37.1c-93.1 0-168.9 75.8-168.9 168.9 0 93.1 75.8 168.9 168.9 168.9S878.5 225 878.5 131.9c0-93.2-75.7-169-168.9-169z m0 315.1c-80.6 0-146.2-65.6-146.2-146.2S629-14.4 709.6-14.4s146.2 65.6 146.2 146.2c0 80.7-65.6 146.2-146.2 146.2zM697.8 50.1c-2.8 0-5.5 1-7.6 2.9l-73.1 65.6c-4.7 4.2-5.1 11.4-0.9 16.1 4.2 4.7 11.4 5.1 16.1 0.9l63.9-57.4 87.3 114.2c3.8 5 11 5.9 15.9 2.1 5-3.8 5.9-11 2.1-15.9l-94.8-123.9c-1.9-2.5-4.8-4.1-8-4.4-0.2-0.2-0.5-0.2-0.9-0.2z"  horiz-adv-x="1024" />

    
    <glyph glyph-name="yonghu" unicode="&#58899;" d="M514.56 377.856m-499.2 0a499.2 499.2 0 1 1 998.4 0 499.2 499.2 0 1 1-998.4 0ZM839.68 120.832V163.84c0 87.552-156.672 111.616-156.672 111.616H367.616s-158.208-24.064-158.208-111.616v-42.496s-0.512-32.256 50.688-33.28c50.688-1.024 265.216 0 265.216 0s214.016-1.024 264.704 0c51.2 0.512 49.664 32.768 49.664 32.768zM578.56 281.6h-52.736l-158.208-3.072s-158.208-27.136-158.208-114.688v-42.496s-0.512-32.256 50.688-33.28c50.688-1.024 51.2 0.512 51.2 0.512L466.432 204.8H578.56V281.6zM430.08 373.76h189.44v-117.76h-189.44zM701.952 538.112S727.04 464.896 660.48 420.864v131.584l41.472-14.336zM337.408 538.112S327.68 464.896 378.88 420.864v131.584l-41.472-14.336zM378.88 551.424V417.792s32.768-115.2 146.432-115.2S670.72 419.84 670.72 419.84v122.368s6.144 174.08-145.408 174.08S378.88 551.424 378.88 551.424zM527.36 302.08c-112.64 0-148.48 115.2-148.48 115.2v133.632s-5.12 164.864 148.48 164.864V302.08zM463.872 622.08s24.064-96.768 249.344-96.768c0 0-3.584 194.048-186.368 194.048s-188.928-194.56-188.928-194.56 76.288 20.992 125.952 97.28zM428.032 338.944L368.128 276.48 465.92 203.776l62.464 48.64zM621.568 338.944L681.984 276.48l-97.792-72.704-62.464 48.64z"  horiz-adv-x="1024" />

    
    <glyph glyph-name="tubiao03" unicode="&#58883;" d="M533.555956 852.562662c-11.891388 13.518523-31.383237 13.518523-43.270532 0l-355.982323-405.600728c-11.889342-13.515453-6.69479-24.620905 11.625316-24.620905l133.089402 0c18.323176 0 33.277467-14.595093 33.277467-32.490507l0-259.910752c0-17.89132 14.943034-32.490507 33.26621-32.490507l332.718387 0c18.31806 0 33.268257 14.599187 33.268257 32.490507L711.548141 389.850522c0 17.895414 14.949174 32.490507 33.270304 32.490507l133.083262 0c18.32727 0 23.524891 11.105452 11.63862 24.620905L533.555956 852.562662zM445.377524-32.504578c0-35.91363-29.762242-64.974874-66.545724-64.974874-36.777342 0-66.537537 29.061243-66.537537 64.974874 0 35.9167 29.760195 64.981014 66.537537 64.981014C415.615282 32.476436 445.377524 3.412122 445.377524-32.504578zM711.547117-32.504578c0-35.91363-29.759172-64.974874-66.547771-64.974874-36.776319 0-66.536514 29.061243-66.536514 64.974874 0 35.9167 29.760195 64.981014 66.536514 64.981014C681.787946 32.476436 711.547117 3.412122 711.547117-32.504578zM378.8318 32.476436l266.167546 0 0-129.955888-266.167546 0 0 129.955888Z"  horiz-adv-x="1025" />

    
    <glyph glyph-name="tubiao04" unicode="&#58884;" d="M490.753098-84.273052c11.891388-13.51443 31.395517-13.51443 43.282812 0l355.97209 405.605844c11.893435 13.515453 6.695814 24.619881-11.629409 24.619881l-133.086332 0c-18.32727 0-33.273374 14.59407-33.273374 32.486414L712.018884 638.35291c0 17.889274-14.943034 32.487437-33.271327 32.487437l-332.706107 0c-18.329317 0-33.278491-14.59714-33.278491-32.487437l0-259.914846c0-17.892344-14.939964-32.486414-33.268257-32.486414l-133.086332 0c-18.319083 0-23.528985-11.104428-11.629409-24.619881L490.753098-84.273052zM578.934599 800.794188c0 35.9167 29.769405 64.976921 66.547771 64.976921 36.773249 0 66.536514-29.06022 66.536514-64.976921 0-35.912607-29.763265-64.976921-66.536514-64.976921C608.702981 735.817267 578.934599 764.881581 578.934599 800.794188zM312.762959 800.794188c0 35.9167 29.762242 64.976921 66.549818 64.976921 36.776319 0 66.537537-29.06022 66.537537-64.976921 0-35.912607-29.761218-64.976921-66.537537-64.976921C342.525201 735.817267 312.762959 764.881581 312.762959 800.794188zM379.312777 865.771108l266.169593 0 0-129.953841-266.169593 0 0 129.953841Z"  horiz-adv-x="1025" />

    
    <glyph glyph-name="shangsheng" unicode="&#59033;" d="M786.295467 410.999467l-6.126934-2.082134v18.295467h6.024534l0.1024-16.213333zM221.5424 410.760533h-8.9088l-0.085333 16.247467 8.994133 0.512v-16.759467zM784.469333 415.709867L504.456533 717.021867a6.826667 6.826667 0 0 1-10.001066 0L214.459733 415.709867a6.826667 6.826667 0 0 1 5.922134-11.4176l158.1056 21.435733L358.4 42.666667v-16.162134a6.826667 6.826667 0 0 1 6.826667-7.168h268.356266a6.826667 6.826667 0 0 1 6.826667 7.168l-0.119467 16.3328-19.848533 382.8736 158.122667-21.418666a6.826667 6.826667 0 0 1 5.922133 11.4176zM191.3344 161.3824l103.031467-72.789333 103.048533 72.789333a127.197867 127.197867 0 0 1-206.097067 0zM294.382933 214.016a127.010133 127.010133 0 0 0 103.048534-52.6336l-103.048534-72.789333-103.031466 72.789333a127.010133 127.010133 0 0 0 103.048533 52.6336m0 10.24a137.915733 137.915733 0 0 1-111.342933-56.849067 10.24 10.24 0 0 1 2.269866-14.2848l0.136534-0.1024L288.426667 80.213333a10.24 10.24 0 0 1 11.810133 0l103.031467 72.772267a10.24 10.24 0 0 1 2.4064 14.3872 137.915733 137.915733 0 0 1-111.342934 56.849067zM384.1536 451.857067h1.5872l-20.48-409.6h268.2368l-20.48 409.6M633.4976 35.4304H365.226667a6.826667 6.826667 0 0 0-6.826667 7.168l20.48 409.6 5.239467-0.256v6.826667h1.5872a6.826667 6.826667 0 0 0 6.826666-7.168l-20.1216-402.432H626.346667l-20.1216 402.432 13.653333 0.682666 20.48-409.6a6.826667 6.826667 0 0 0-6.826667-7.168zM613.0176 449.723733l166.365867-22.545066L499.387733 728.490667 219.374933 427.178667l164.778667 22.545066M633.4976 35.4304H365.226667a6.826667 6.826667 0 0 0-6.826667 7.168l19.968 399.240533-158.122667-21.435733a6.826667 6.826667 0 0 0-5.922133 11.4176L494.370133 733.1328a6.826667 6.826667 0 0 0 10.001067 0L784.384 431.786667a6.826667 6.826667 0 0 0-5.922133-11.4176l-158.122667 21.418666L640.3072 42.666667a6.826667 6.826667 0 0 0-6.826667-7.168z m-261.12 13.653333H626.346667L606.3104 449.365333a6.826667 6.826667 0 0 0 7.7312 7.099734l147.3536-19.950934L499.370667 718.506667 237.3632 436.514133l147.3536 19.968a6.826667 6.826667 0 0 0 7.7312-7.099733zM557.3632 278.4256l149.5552-105.659733 149.572267 105.659733a184.644267 184.644267 0 0 1-299.1616 0zM706.935467 354.816a184.32 184.32 0 0 0 149.572266-76.3904l-149.572266-105.659733-149.5552 105.659733a184.32 184.32 0 0 0 149.572266 76.3904m0 10.24a194.56 194.56 0 0 1-157.866666-80.622933 10.24 10.24 0 0 1 2.184533-14.2336l0.221867-0.1536 149.5552-105.659734a10.24 10.24 0 0 1 11.810133 0l149.5552 105.642667a10.24 10.24 0 0 1 2.4064 14.3872 194.56 194.56 0 0 1-157.866667 80.622933z"  horiz-adv-x="1024" />

    
    <glyph glyph-name="xiajiang" unicode="&#59037;" d="M252.484267 329.250133h11.776v-16.6912h-11.776zM815.684267 329.1648h10.461866v-16.9984h-10.461866zM825.361067 315.357867a6.826667 6.826667 0 0 1-6.980267 3.618133l-158.0032-21.418667L680.2432 694.613333a6.826667 6.826667 0 0 1 0 1.058134v1.109333a6.826667 6.826667 0 0 1-6.826667 7.168H405.1968a6.826667 6.826667 0 0 1-6.826667-7.168v-1.109333a6.826667 6.826667 0 0 1 0-1.058134l19.848534-397.038933-158.0032 21.4016a6.826667 6.826667 0 0 1-5.922134-11.4176l280.0128-301.277867a6.826667 6.826667 0 0 1 10.001067 0L824.32 307.575467a6.826667 6.826667 0 0 1 1.041067 7.7824zM339.780267 372.2752H103.6288a17.066667 17.066667 0 1 0 0 34.133333h236.151467a13.380267 13.380267 0 1 1 0 26.760534h-33.467734a44.782933 44.782933 0 1 0 0.631467 89.565866h238.250667a17.066667 17.066667 0 0 0 0-34.133333h-238.250667a11.093333 11.093333 0 0 1-11.229867-9.5744 10.717867 10.717867 0 0 1 10.5984-11.7248h33.467734a47.5136 47.5136 0 1 0 0-95.0272zM545.194667 522.717867a17.066667 17.066667 0 0 0 0-34.133334h-238.250667a11.093333 11.093333 0 0 1-11.229867-9.5744 10.717867 10.717867 0 0 1 10.5984-11.7248h33.467734a47.5136 47.5136 0 1 0 0-95.0272H103.6288a17.066667 17.066667 0 1 0 0 34.133334h236.151467a13.380267 13.380267 0 1 1 0 26.760533h-33.467734a44.782933 44.782933 0 1 0 0.631467 89.565867h238.250667m0 10.24h-238.250667a55.022933 55.022933 0 1 1-0.631467-110.045867h33.467734a3.140267 3.140267 0 1 0 0-6.280533H103.6288a27.306667 27.306667 0 1 1 0-54.613334h236.151467a57.7536 57.7536 0 1 1 0 115.5072h-33.467734a0.512 0.512 0 0 0-0.290133 0.170667 0.3584 0.3584 0 0 0-0.119467 0.221867 1.416533 1.416533 0 0 0 1.041067 0.426666h238.250667a27.306667 27.306667 0 0 1 0 54.613334zM654.523733 304.145067h-1.5872l20.48 409.6H405.1968l20.48-409.6M654.523733 302.4384h-1.5872l20.48 409.6H405.1968l20.48-409.6M654.523733 295.611733h-1.5872a6.826667 6.826667 0 0 0-6.826666 7.168l20.1216 402.432H412.3648l20.1216-402.432-13.653333-0.682666-20.48 409.6a6.826667 6.826667 0 0 0 6.826666 7.168h268.253867a6.826667 6.826667 0 0 0 6.826667-7.168l-20.48-409.6-5.239467 0.256zM425.6768 306.295467l-166.365867 22.528L539.306667 27.528533l279.995733 301.294934-164.778667-22.528M425.6768 304.5888l-166.365867 22.528L539.306667 25.821867l279.995733 301.294933-164.778667-22.528M539.306667 21.162667a6.826667 6.826667 0 0 0-5.000534 2.184533L254.293333 324.642133a6.826667 6.826667 0 0 0 5.922134 11.4176l158.122666-21.418666-19.968 399.223466a6.826667 6.826667 0 0 0 6.826667 7.168h268.2368a6.826667 6.826667 0 0 0 6.826667-7.168l-19.968-399.240533 158.122666 21.435733a6.826667 6.826667 0 0 0 5.922134-11.4176L544.3072 23.3472a6.826667 6.826667 0 0 0-5.000533-2.184533zM277.2992 319.965867L539.306667 38.024533l262.007466 281.941334-147.3536-19.968a6.826667 6.826667 0 0 0-7.7312 7.099733l20.0192 400.2816H412.3648l20.0192-400.264533a6.826667 6.826667 0 0 0-7.7312-7.099734zM780.7488 669.661867h105.540267a17.066667 17.066667 0 0 0 0-34.133334h-105.540267a13.380267 13.380267 0 1 1 0-26.760533h8.0384a44.782933 44.782933 0 1 0 0.631467-89.565867H503.7056a17.066667 17.066667 0 0 0 0 34.133334h285.730133a10.717867 10.717867 0 0 1 10.5984 11.7248 11.076267 11.076267 0 0 1-11.229866 9.5744h-8.0384a47.5136 47.5136 0 1 0 0 95.0272zM886.289067 669.661867a17.066667 17.066667 0 0 0 0-34.133334h-105.540267a13.380267 13.380267 0 1 1 0-26.760533h8.0384a44.782933 44.782933 0 1 0 0.631467-89.565867H503.7056a17.066667 17.066667 0 0 0 0 34.133334h285.730133a10.717867 10.717867 0 0 1 10.5984 11.7248 11.076267 11.076267 0 0 1-11.229866 9.5744h-8.0384a47.5136 47.5136 0 1 0 0 95.0272h105.540266m0 10.24h-105.557333a57.7536 57.7536 0 1 1 0-115.5072h8.0384a1.416533 1.416533 0 0 0 1.041067-0.426667 0.341333 0.341333 0 0 0-0.119467-0.221867 0.802133 0.802133 0 0 0-0.221867-0.170666H503.7056a27.306667 27.306667 0 0 1 0-54.613334h285.730133a55.022933 55.022933 0 1 1-0.631466 110.045867h-8.0384a3.140267 3.140267 0 1 0 0 6.280533h105.540266a27.306667 27.306667 0 0 1 0 54.613334z"  horiz-adv-x="1024" />

    
    <glyph glyph-name="huangguan" unicode="&#58972;" d="M369.066667 256c-4.266667 0-10.666667 2.133333-14.933334 4.266667-14.933333 8.533333-21.333333 27.733333-12.8 42.666666l130.133334 234.666667c14.933333 19.2 36.266667 29.866667 59.733333 29.866667 23.466667 0 46.933333-10.666667 61.866667-27.733334l2.133333-4.266666 128-215.466667c8.533333-14.933333 4.266667-34.133333-10.666667-44.8-14.933333-8.533333-34.133333-4.266667-44.8 10.666667l-125.866666 213.333333c-4.266667 2.133333-8.533333 4.266667-10.666667 4.266667-2.133333 0-6.4 0-10.666667-4.266667l-125.866666-228.266667c-4.266667-8.533333-14.933333-14.933333-25.6-14.933333zM716.8 40.533333H322.133333c-53.333333 0-102.4 34.133333-119.466666 83.2L93.866667 424.533333c-6.4 19.2 0 40.533333 14.933333 51.2 17.066667 12.8 38.4 12.8 53.333333 0L437.333333 277.333333c10.666667-8.533333 23.466667-12.8 36.266667-12.8h98.133333c14.933333 0 27.733333 4.266667 38.4 12.8l268.8 209.066667c17.066667 12.8 38.4 12.8 55.466667 0s23.466667-34.133333 14.933333-53.333333l-115.2-311.466667c-17.066667-46.933333-64-81.066667-117.333333-81.066667zM174.933333 388.266667l87.466667-243.2c8.533333-25.6 32-42.666667 59.733333-42.666667h392.533334c25.6 0 51.2 17.066667 59.733333 40.533333l91.733333 251.733334-217.6-168.533334c-21.333333-17.066667-49.066667-27.733333-78.933333-27.733333h-98.133333c-27.733333 0-53.333333 8.533333-74.666667 23.466667L174.933333 388.266667zM102.4 554.666667m-42.666667 0a42.666667 42.666667 0 1 1 85.333334 0 42.666667 42.666667 0 1 1-85.333334 0ZM531.2 646.4m-42.666667 0a42.666667 42.666667 0 1 1 85.333334 0 42.666667 42.666667 0 1 1-85.333334 0ZM942.933333 573.866667m-42.666666 0a42.666667 42.666667 0 1 1 85.333333 0 42.666667 42.666667 0 1 1-85.333333 0Z"  horiz-adv-x="1024" />

    
    <glyph glyph-name="huangguan-" unicode="&#58891;" d="M544.16 658.47c47.69 0.1 86.43-38.49 86.53-86.18 0.05-26.08-11.46-49.49-29.71-65.36l0.1-2.72 12.28-76.28c0.12-57.2 45.06-103.47 100.39-103.36 55.33 0.11 100.09 46.57 99.97 103.77l-0.23 3.86c-10.02 18.23-15.04 33-15.06 44.33-0.08 37.19 30.01 67.4 67.2 67.48 37.19 0.08 67.4-30.01 67.48-67.2 0.06-27.83-16.77-51.74-40.83-62.06L818.99 63.3l-549.1-1.12-77.8 365.63c-19.51 11.4-32.64 32.56-32.69 56.79-0.07 36.39 29.36 65.95 65.75 66.02s65.95-29.36 66.02-65.75c0.01-4.74-0.48-9.36-1.42-13.81-2.61-5.29-4.63-10.92-6.14-16.76-3.16-6.2-4.21-13.92-3.15-23.16l-0.02-2.16c0.11-55.42 45.14-100.26 100.56-100.15 55.42 0.11 100.26 45.14 100.15 100.56l6.71 74.59 0.13 2.67c-18.34 15.8-29.97 39.17-30.02 65.28-0.08 47.7 38.5 86.44 86.19 86.54zM222.52 91.58c-7.15 0-13.32 5-14.81 11.99l-76.49 359.49c-21.28 15.05-34.27 39.77-34.33 66.05-0.04 21.64 8.34 42.01 23.62 57.34 15.27 15.34 35.6 23.81 57.25 23.85h0.17c21.58 0 41.88-8.38 57.17-23.62 15.34-15.27 23.81-35.6 23.85-57.25 0.01-5.71-0.58-11.42-1.75-16.97a15.19 15.19 0 0 0-1.24-3.58c-2.06-4.17-3.76-8.82-5.05-13.83-0.28-1.08-0.67-2.12-1.18-3.1-1.77-3.46-2.31-8.36-1.59-14.55 0.07-0.62 0.1-1.23 0.1-1.85l-0.02-2.08c0.07-22.73 8.97-44.08 25.08-60.12 16.08-16.02 37.43-24.84 60.13-24.84h0.18c22.76 0.05 44.14 8.95 60.21 25.08 16.06 16.13 24.88 37.54 24.84 60.31 0 0.46 0.02 0.93 0.06 1.39L425 545.1a101.476 101.476 0 0 0-29.52 71.35c-0.06 27.11 10.45 52.62 29.58 71.83s44.6 29.82 71.71 29.87h0.21c55.87 0 101.38-45.39 101.49-101.29 0.05-26.71-10.4-52.21-28.92-71.16l11.4-70.81c0.13-0.79 0.19-1.58 0.19-2.38 0.1-48.7 38.24-88.25 85.05-88.25h0.17c46.76 0.1 84.75 39.62 84.86 88.19v0.06c-10.25 19.29-15.25 35.2-15.28 48.54-0.04 22.03 8.49 42.76 24.04 58.37 15.55 15.61 36.24 24.23 58.27 24.28h0.17c45.4 0 82.38-36.89 82.48-82.31a82.405 82.405 0 0 0-42.65-72.42l-71.78-344.21a15.132 15.132 0 0 0-14.79-12.05l-549.1-1.12c-0.04-0.01-0.05-0.01-0.06-0.01z m-44.6 488.44h-0.11c-13.55-0.03-26.29-5.33-35.85-14.94-9.56-9.6-14.82-22.36-14.79-35.91 0.04-17.93 9.69-34.69 25.19-43.75 3.68-2.15 6.28-5.75 7.17-9.92l75.24-353.62 524.53 1.07 70.78 339.43c1.01 4.84 4.31 8.88 8.86 10.83a52.163 52.163 0 0 1 31.65 48.11c-0.06 28.75-23.46 52.09-52.2 52.09h-0.11c-13.94-0.03-27.04-5.48-36.88-15.36s-15.24-23-15.21-36.94c0.01-5.99 2.31-17.28 13.19-37.07 1.08-1.97 1.71-4.16 1.85-6.41l0.23-3.86c0.02-0.28 0.03-0.57 0.03-0.85 0.13-65.45-51.49-118.81-115.08-118.94h-0.23c-63.09-0.01-114.55 52.42-115.32 117.24l-12.09 75.14c-0.1 0.62-0.16 1.25-0.18 1.87l-0.1 2.72a15.14 15.14 0 0 0 5.2 11.96c15.61 13.58 24.55 33.23 24.5 53.9-0.08 39.22-32.01 71.07-71.21 71.07h-0.15c-19.02-0.04-36.89-7.48-50.31-20.96-13.42-13.48-20.79-31.38-20.75-50.4a71.23 71.23 0 0 1 24.76-53.84c3.54-3.05 5.48-7.57 5.24-12.23l-0.13-2.67c-0.01-0.2-0.02-0.4-0.04-0.59l-6.65-73.93c-0.12-30.58-12.06-59.33-33.66-81.02-21.77-21.86-50.75-33.93-81.6-33.99h-0.24c-30.76 0-59.69 11.95-81.49 33.66-21.86 21.77-33.93 50.75-33.99 81.6v0.16l0.01 1.28c-1.14 11.09 0.22 20.89 4.03 29.19 1.57 5.75 3.55 11.21 5.91 16.28 0.52 2.95 0.78 5.97 0.77 8.99-0.03 13.55-5.33 26.29-14.94 35.85-9.61 9.51-22.32 14.76-35.83 14.76zM557.42 14.09H264.98c-8.36 0-15.14 6.78-15.14 15.14s6.78 15.14 15.14 15.14h292.43c8.36 0 15.14-6.78 15.14-15.14s-6.77-15.14-15.13-15.14zM723.51 14.09h-59.17c-8.36 0-15.14 6.78-15.14 15.14s6.78 15.14 15.14 15.14h59.17c8.36 0 15.14-6.78 15.14-15.14s-6.77-15.14-15.14-15.14z"  horiz-adv-x="1024" />

    
    <glyph glyph-name="huangguan1" unicode="&#58901;" d="M430.1-31.7h-278v571l89-182.7zM524 650.7v-683H227.8v5.5h-0.1V340.4l0.1 0.1 92.7 97.1zM618.1-32.3h278.1v571h-0.1L807.2 356zM522.4 650.8v-683h296.2V340.5l-92.7 97.2zM522.8 444l-62.7-69.8 62.3-58.1 65.7 61.5zM916 113.9H140.7c-6.6 0-12 5.4-12 12v4.6c0 6.6 5.4 12 12 12H916c6.6 0 12-5.4 12-12v-4.6c0-6.6-5.4-12-12-12zM192 128.2m-14.3 0a14.3 14.3 0 1 1 28.6 0 14.3 14.3 0 1 1-28.6 0ZM320.1 128m-14.3 0a14.3 14.3 0 1 1 28.6 0 14.3 14.3 0 1 1-28.6 0ZM448.1 128m-14.3 0a14.3 14.3 0 1 1 28.6 0 14.3 14.3 0 1 1-28.6 0ZM576.1 128m-14.3 0a14.3 14.3 0 1 1 28.6 0 14.3 14.3 0 1 1-28.6 0ZM707.5 128m-14.3 0a14.3 14.3 0 1 1 28.6 0 14.3 14.3 0 1 1-28.6 0ZM834.1 128.2m-14.3 0a14.3 14.3 0 1 1 28.6 0 14.3 14.3 0 1 1-28.6 0Z"  horiz-adv-x="1024" />

    
    <glyph glyph-name="camera" unicode="&#59032;" d="M256 576v48a16 16 0 0 0 16 16h160a16 16 0 0 0 16-16v-48h388.864c6.16 0 11.136-4.976 11.136-11.136v-441.728a11.136 11.136 0 0 0-11.136-11.136H187.136a11.136 11.136 0 0 0-11.136 11.136V564.864c0 6.16 4.976 11.136 11.136 11.136H256z m43.04 0h105.92v24.384h-105.92V576zM224 160h576V528H224v-368z m475.136 336h41.728c6.16 0 11.136-4.976 11.136-11.136v-41.728a11.136 11.136 0 0 0-11.136-11.136h-41.728a11.136 11.136 0 0 0-11.136 11.136v41.728c0 6.16 4.976 11.136 11.136 11.136zM504 216a128 128 0 1 0 0 256 128 128 0 0 0 0-256z m0 48a80 80 0 1 1 0 160 80 80 0 0 1 0-160z"  horiz-adv-x="1024" />

    
    <glyph glyph-name="xuejiguanli" unicode="&#59062;" d="M672 608H224v-576h448V608z m64-448h64V736H352v-64h320a64 64 0 0 0 64-64v-448z m-160 64a32 32 0 0 0 0-64h-256a32 32 0 0 0 0 64h256z m0 128a32 32 0 0 0 0-64h-256a32 32 0 0 0 0 64h256z m-96 128a32 32 0 0 0 0-64h-160a32 32 0 0 0 0 64h160z m256-448a64 64 0 0 0-64-64H224a64 64 0 0 0-64 64V608a64 64 0 0 0 64 64h64V736a64 64 0 0 0 64 64h448a64 64 0 0 0 64-64v-576a64 64 0 0 0-64-64h-64v-64z"  horiz-adv-x="1024" />

    
    <glyph glyph-name="bianji" unicode="&#59564;" d="M862.709333 779.957333a32 32 0 1 0 45.248-45.248L455.445333 282.186667a32 32 0 1 0-45.258666 45.258666L862.709333 779.946667zM853.333333 448a32 32 0 0 0 64 0v-352c0-64.8-52.533333-117.333333-117.333333-117.333333H224c-64.8 0-117.333333 52.533333-117.333333 117.333333V672c0 64.8 52.533333 117.333333 117.333333 117.333333h341.333333a32 32 0 0 0 0-64H224a53.333333 53.333333 0 0 1-53.333333-53.333333v-576a53.333333 53.333333 0 0 1 53.333333-53.333333h576a53.333333 53.333333 0 0 1 53.333333 53.333333V448z"  horiz-adv-x="1024" />

    
    <glyph glyph-name="auto" unicode="&#59115;" d="M689.536 704c26.816 0 50.794667-16.64 60.202667-41.706667l78.08-207.978666 67.754666 39.125333 27.562667-47.786667-50.709333-29.269333a64.213333 64.213333 0 0 0 27.157333-52.522667v-202.368a64.298667 64.298667 0 0 0-64.298667-64.298666h-27.648V21.333333h-55.146666v75.861334H255.957333V21.333333H200.853333v75.861334H173.184a64.298667 64.298667 0 0 0-64.32 64.298666v202.368a64.213333 64.213333 0 0 0 27.2 52.522667L85.333333 445.653333l27.584 47.786667 67.733334-39.104 78.08 207.957333A64.298667 64.298667 0 0 0 318.933333 704h370.602667z m145.728-342.954667H173.184v-199.552h662.101333v199.552z m-556.288-50.090666a41.386667 41.386667 0 1 0 0-82.752 41.386667 41.386667 0 0 0 0 82.752z m455.125333 0a41.386667 41.386667 0 1 0 0-82.752 41.386667 41.386667 0 0 0 0 82.752z m-44.565333 328.746666H318.933333l-79.402666-211.52h529.386666l-79.36 211.52z m-79.573333-46.037333v-62.058667h-206.869334v62.08h206.869334z"  horiz-adv-x="1024" />

    
    <glyph glyph-name="all" unicode="&#59119;" d="M490.666667 362.666667v-256a64 64 0 0 0-64-64h-192a64 64 0 0 0-64 64v192a64 64 0 0 0 64 64h256z m298.666666 0a64 64 0 0 0 64-64v-192a64 64 0 0 0-64-64h-192a64 64 0 0 0-64 64V362.666667h256z m-362.666666-64h-192v-192h192v192z m362.666666 0h-192v-192h192v192zM426.666667 725.333333a64 64 0 0 0 64-64v-256H234.666667a64 64 0 0 0-64 64v192a64 64 0 0 0 64 64h192z m266.666666 0a160 160 0 1 0 0-320 160 160 0 0 0 0 320zM426.666667 661.333333h-192v-192h192v192z m266.666666 0a96 96 0 1 1 0-192 96 96 0 0 1 0 192z"  horiz-adv-x="1024" />

    
    <glyph glyph-name="bussiness-man" unicode="&#59120;" d="M644.8 314.432l160.64-187.456A64 64 0 0 0 756.842667 21.333333H267.157333a64 64 0 0 0-48.597333 105.642667l160.661333 187.434667c18.922667-11.52 39.466667-20.629333 61.205334-26.944L267.157333 85.333333H480v128h64v-128h212.842667l-173.269334 202.133334a254.613333 254.613333 0 0 1 61.226667 26.965333zM512 746.666667c117.824 0 213.333333-95.509333 213.333333-213.333334s-95.509333-213.333333-213.333333-213.333333-213.333333 95.509333-213.333333 213.333333S394.176 746.666667 512 746.666667z m0-64a149.333333 149.333333 0 1 1 0-298.666667 149.333333 149.333333 0 0 1 0 298.666667z"  horiz-adv-x="1024" />

    
    <glyph glyph-name="component" unicode="&#59122;" d="M516.757333 746.666667a120.896 120.896 0 0 0 114.005334-161.173334h104.064a64 64 0 0 0 64-64V85.333333a64 64 0 0 0-64-64H298.666667a64 64 0 0 0-64 64v87.104c0 15.701333 11.989333 28.629333 27.306666 30.08l2.922667 0.149334a90.666667 90.666667 0 0 1 4.394667 181.226666L264.896 384a30.229333 30.229333 0 0 0-30.08 27.306667L234.666667 414.250667v107.242666a64 64 0 0 0 64 64h104.064a120.704 120.704 0 0 0-6.869334 40.32C395.861333 711.253333 431.274667 746.666667 516.757333 746.666667z m0-64a56.896 56.896 0 0 1-53.674666-75.861334l30.144-85.312H298.666667v-77.184a154.730667 154.730667 0 0 0 5.162666-300.693333l-5.162666-1.258667V85.333333h436.16V521.472l-194.56 0.021333 30.144 85.333334A56.896 56.896 0 0 1 516.736 682.666667z"  horiz-adv-x="1024" />

    


  </font>
</defs>
</svg>
